<svg xmlns="http://www.w3.org/2000/svg" xmlns:xlink="http://www.w3.org/1999/xlink" width="1080" zoomAndPan="magnify" viewBox="0 0 810 809.999993" height="1080" preserveAspectRatio="xMidYMid meet" version="1.0"><defs><clipPath id="01d522baac"><path d="M 6 801 L 810 801 L 810 809.664062 L 6 809.664062 Z M 6 801 " clip-rule="nonzero"/></clipPath></defs><g clip-path="url(#01d522baac)"><path fill="#1a3a49" d="M 6.308594 801.671875 L 809.960938 801.671875 L 809.960938 809.152344 L 6.308594 809.152344 Z M 6.308594 801.671875 " fill-opacity="1" fill-rule="nonzero"/></g><path fill="#a7abc6" d="M 750.171875 155.425781 L 784.960938 155.425781 C 797.640625 155.425781 807.78125 165.699219 807.5625 178.410156 L 802.628906 464.511719 C 802.410156 477.222656 791.914062 487.496094 779.234375 487.496094 L 744.449219 487.496094 Z M 750.171875 155.425781 " fill-opacity="1" fill-rule="nonzero"/><path fill="#218ae5" d="M 745.226562 442.460938 L 803.007812 442.460938 L 802.628906 464.511719 C 802.410156 477.222656 791.914062 487.496094 779.234375 487.496094 L 744.449219 487.496094 Z M 745.226562 442.460938 " fill-opacity="1" fill-rule="nonzero"/><path fill="#e8e9fd" d="M 796.09375 178.410156 L 791.160156 464.511719 C 790.941406 477.222656 780.449219 487.496094 767.769531 487.496094 L 424.910156 487.496094 C 412.230469 487.496094 402.09375 477.222656 402.3125 464.511719 L 407.246094 178.410156 C 407.464844 165.699219 417.957031 155.425781 430.636719 155.425781 L 773.492188 155.425781 C 786.171875 155.425781 796.3125 165.699219 796.09375 178.410156 Z M 796.09375 178.410156 " fill-opacity="1" fill-rule="nonzero"/><path fill="#82cafa" d="M 402.691406 442.460938 L 402.3125 464.511719 C 402.09375 477.222656 412.230469 487.496094 424.910156 487.496094 L 767.769531 487.496094 C 780.449219 487.496094 790.941406 477.222656 791.160156 464.511719 L 791.542969 442.460938 Z M 402.691406 442.460938 " fill-opacity="1" fill-rule="nonzero"/><path fill="#47adf7" d="M 769.367188 463.089844 C 769.335938 465.074219 767.683594 466.675781 765.695312 466.675781 L 468.597656 466.675781 C 466.609375 466.675781 465.011719 465.074219 465.046875 463.089844 C 465.082031 461.101562 466.734375 459.480469 468.722656 459.480469 L 765.820312 459.480469 C 767.808594 459.480469 769.402344 461.101562 769.367188 463.089844 Z M 769.367188 463.089844 " fill-opacity="1" fill-rule="nonzero"/><path fill="#ffffff" d="M 613.808594 463.066406 C 613.773438 465.074219 612.144531 466.675781 610.132812 466.675781 L 468.597656 466.675781 C 466.609375 466.675781 465.011719 465.074219 465.046875 463.089844 C 465.082031 461.101562 466.734375 459.480469 468.722656 459.480469 L 610.257812 459.480469 C 612.269531 459.480469 613.839844 461.078125 613.808594 463.066406 Z M 613.808594 463.066406 " fill-opacity="1" fill-rule="nonzero"/><path fill="#ffffff" d="M 430.398438 473.496094 L 422.4375 473.496094 L 422.773438 453.988281 L 430.734375 453.988281 Z M 430.398438 473.496094 " fill-opacity="1" fill-rule="nonzero"/><path fill="#ffffff" d="M 445.78125 473.496094 L 437.820312 473.496094 L 438.15625 453.988281 L 446.117188 453.988281 Z M 445.78125 473.496094 " fill-opacity="1" fill-rule="nonzero"/><path fill="#37c092" d="M 731.121094 412.511719 L 462.679688 412.511719 C 458.144531 412.511719 454.535156 408.839844 454.613281 404.308594 L 458.039062 205.582031 C 458.117188 201.050781 461.855469 197.375 466.386719 197.375 L 734.832031 197.375 C 739.363281 197.375 742.976562 201.050781 742.898438 205.582031 L 739.472656 404.308594 C 739.394531 408.839844 735.65625 412.511719 731.121094 412.511719 Z M 731.121094 412.511719 " fill-opacity="1" fill-rule="nonzero"/><path fill="#eae8fe" d="M 727.480469 209.84375 L 724.503906 382.488281 C 724.425781 386.933594 720.765625 390.53125 716.363281 390.53125 L 620.441406 390.53125 C 615.773438 390.53125 611.21875 391.640625 607.140625 393.6875 C 604.21875 395.132812 601.558594 397.027344 599.234375 399.347656 C 597.75 400.832031 595.390625 400.832031 593.957031 399.347656 C 591.714844 397.027344 589.117188 395.132812 586.246094 393.6875 C 582.238281 391.640625 577.722656 390.53125 573.054688 390.53125 L 477.222656 390.53125 C 472.777344 390.53125 469.238281 386.929688 469.316406 382.488281 L 472.292969 209.84375 C 472.367188 205.425781 476.011719 201.84375 480.433594 201.84375 L 719.617188 201.84375 C 724.015625 201.84375 727.554688 205.445312 727.480469 209.84375 Z M 727.480469 209.84375 " fill-opacity="1" fill-rule="nonzero"/><path fill="#ffffff" d="M 600.085938 197.261719 L 596.824219 386.417969 C 595.707031 384.929688 594.585938 383.558594 593.234375 382.414062 C 587.941406 377.378906 580.894531 374.519531 573.34375 374.519531 L 469.433594 374.519531 L 472.546875 193.832031 C 472.621094 189.484375 476.234375 185.824219 480.695312 185.824219 L 588.839844 185.824219 C 591.816406 185.824219 594.542969 186.96875 596.570312 188.914062 C 598.824219 190.972656 600.144531 193.945312 600.085938 197.261719 Z M 600.085938 197.261719 " fill-opacity="1" fill-rule="nonzero"/><path fill="#ffffff" d="M 727.746094 193.945312 L 724.632812 374.519531 L 620.71875 374.519531 C 611.335938 374.519531 602.5625 378.980469 596.824219 386.417969 L 600.085938 197.261719 C 600.195312 190.972656 605.4375 185.824219 611.726562 185.824219 L 719.875 185.9375 C 724.335938 185.9375 727.824219 189.484375 727.746094 193.945312 Z M 727.746094 193.945312 " fill-opacity="1" fill-rule="nonzero"/><path fill="#e8e9fd" d="M 603.867188 188.917969 L 600.53125 382.402344 C 599.179688 383.558594 598 384.933594 596.820312 386.398438 C 595.6875 384.933594 594.601562 383.558594 593.242188 382.402344 L 596.578125 188.917969 C 598.8125 190.960938 600.136719 193.9375 600.078125 197.269531 C 600.136719 193.9375 601.566406 190.960938 603.867188 188.917969 Z M 603.867188 188.917969 " fill-opacity="1" fill-rule="nonzero"/><path fill="#e8e9fd" d="M 562.941406 336.652344 C 564.316406 336.652344 565.40625 337.757812 565.382812 339.132812 C 565.359375 340.507812 564.230469 341.613281 562.855469 341.613281 L 485.480469 341.613281 C 484.105469 341.613281 483.015625 340.507812 483.042969 339.132812 C 483.066406 337.757812 484.191406 336.652344 485.566406 336.652344 Z M 562.941406 336.652344 " fill-opacity="1" fill-rule="nonzero"/><path fill="#e8e9fd" d="M 526.089844 213.050781 C 526.113281 211.675781 527.257812 210.550781 528.617188 210.550781 L 564.761719 210.550781 C 566.117188 210.550781 567.222656 211.675781 567.199219 213.050781 C 567.175781 214.40625 566.03125 215.53125 564.675781 215.53125 L 528.53125 215.53125 C 527.171875 215.53125 526.066406 214.40625 526.089844 213.050781 Z M 526.089844 213.050781 " fill-opacity="1" fill-rule="nonzero"/><path fill="#e8e9fd" d="M 483.695312 279.464844 C 483.71875 278.109375 484.863281 276.984375 486.21875 276.984375 L 563.613281 276.984375 C 564.972656 276.984375 566.078125 278.109375 566.054688 279.464844 C 566.03125 280.839844 564.886719 281.964844 563.527344 281.964844 L 486.132812 281.964844 C 484.777344 281.964844 483.671875 280.839844 483.695312 279.464844 Z M 483.695312 279.464844 " fill-opacity="1" fill-rule="nonzero"/><path fill="#e8e9fd" d="M 483.953125 264.507812 C 483.976562 263.132812 485.121094 262.027344 486.476562 262.027344 L 584.835938 262.027344 C 586.210938 262.027344 587.300781 263.132812 587.277344 264.507812 C 587.253906 265.882812 586.125 266.988281 584.75 266.988281 L 486.390625 266.988281 C 485.035156 266.988281 483.929688 265.882812 483.953125 264.507812 Z M 483.953125 264.507812 " fill-opacity="1" fill-rule="nonzero"/><path fill="#e8e9fd" d="M 584.082031 326.636719 L 485.738281 326.636719 C 484.363281 326.636719 483.277344 325.53125 483.300781 324.15625 C 483.324219 322.785156 484.449219 321.675781 485.824219 321.675781 L 584.164062 321.675781 C 585.539062 321.675781 586.648438 322.785156 586.621094 324.15625 C 586.597656 325.53125 585.457031 326.636719 584.082031 326.636719 Z M 584.082031 326.636719 " fill-opacity="1" fill-rule="nonzero"/><path fill="#e8e9fd" d="M 525.859375 226.4375 C 525.882812 225.0625 527.027344 223.957031 528.382812 223.957031 L 583.277344 223.957031 C 584.636719 223.957031 585.742188 225.0625 585.71875 226.4375 C 585.695312 227.8125 584.550781 228.917969 583.195312 228.917969 L 528.300781 228.917969 C 526.941406 228.917969 525.835938 227.8125 525.859375 226.4375 Z M 525.859375 226.4375 " fill-opacity="1" fill-rule="nonzero"/><path fill="#e8e9fd" d="M 483.4375 294.441406 C 483.460938 293.066406 484.605469 291.960938 485.960938 291.960938 L 584.320312 291.960938 C 585.695312 291.960938 586.785156 293.066406 586.761719 294.441406 C 586.738281 295.8125 585.609375 296.921875 584.234375 296.921875 L 485.875 296.921875 C 484.519531 296.921875 483.414062 295.8125 483.4375 294.441406 Z M 483.4375 294.441406 " fill-opacity="1" fill-rule="nonzero"/><path fill="#e8e9fd" d="M 483.558594 309.183594 C 483.582031 307.824219 484.707031 306.703125 486.082031 306.703125 L 563.457031 306.703125 C 564.832031 306.703125 565.921875 307.824219 565.898438 309.183594 C 565.875 310.558594 564.746094 311.679688 563.371094 311.679688 L 485.996094 311.679688 C 484.621094 311.679688 483.535156 310.558594 483.558594 309.183594 Z M 483.558594 309.183594 " fill-opacity="1" fill-rule="nonzero"/><path fill="#e8e9fd" d="M 586.105469 354.109375 C 586.082031 355.480469 584.9375 356.589844 583.5625 356.589844 L 485.222656 356.589844 C 483.847656 356.589844 482.757812 355.480469 482.78125 354.109375 C 482.808594 352.734375 483.933594 351.625 485.308594 351.625 L 583.648438 351.625 C 585.023438 351.625 586.128906 352.734375 586.105469 354.109375 Z M 586.105469 354.109375 " fill-opacity="1" fill-rule="nonzero"/><path fill="#e8e9fd" d="M 484.210938 249.53125 C 484.234375 248.160156 485.378906 247.050781 486.734375 247.050781 L 564.128906 247.050781 C 565.488281 247.050781 566.59375 248.160156 566.570312 249.53125 C 566.546875 250.90625 565.402344 252.011719 564.046875 252.011719 L 486.648438 252.011719 C 485.292969 252.011719 484.1875 250.90625 484.210938 249.53125 Z M 484.210938 249.53125 " fill-opacity="1" fill-rule="nonzero"/><path fill="#e8e9fd" d="M 714.101562 326.636719 L 615.761719 326.636719 C 614.382812 326.636719 613.277344 325.53125 613.300781 324.15625 C 613.324219 322.785156 614.46875 321.675781 615.84375 321.675781 L 714.1875 321.675781 C 715.5625 321.675781 716.648438 322.785156 716.625 324.15625 C 716.601562 325.53125 715.476562 326.636719 714.101562 326.636719 Z M 714.101562 326.636719 " fill-opacity="1" fill-rule="nonzero"/><path fill="#e8e9fd" d="M 613.457031 294.441406 C 613.480469 293.066406 614.605469 291.960938 615.980469 291.960938 L 714.339844 291.960938 C 715.714844 291.960938 716.804688 293.066406 716.78125 294.441406 C 716.757812 295.8125 715.632812 296.921875 714.257812 296.921875 L 615.898438 296.921875 C 614.519531 296.921875 613.433594 295.8125 613.457031 294.441406 Z M 613.457031 294.441406 " fill-opacity="1" fill-rule="nonzero"/><path fill="#e8e9fd" d="M 716.109375 354.109375 C 716.085938 355.480469 714.960938 356.589844 713.585938 356.589844 L 615.242188 356.589844 C 613.867188 356.589844 612.761719 355.480469 612.785156 354.109375 C 612.808594 352.734375 613.953125 351.625 615.328125 351.625 L 713.671875 351.625 C 715.046875 351.625 716.132812 352.734375 716.109375 354.109375 Z M 716.109375 354.109375 " fill-opacity="1" fill-rule="nonzero"/><path fill="#e8e9fd" d="M 614.230469 249.53125 C 614.253906 248.160156 615.382812 247.050781 616.757812 247.050781 L 694.132812 247.050781 C 695.507812 247.050781 696.597656 248.160156 696.574219 249.53125 C 696.550781 250.90625 695.421875 252.011719 694.046875 252.011719 L 616.671875 252.011719 C 615.296875 252.011719 614.207031 250.90625 614.230469 249.53125 Z M 614.230469 249.53125 " fill-opacity="1" fill-rule="nonzero"/><path fill="#e8e9fd" d="M 692.964844 336.652344 C 694.339844 336.652344 695.425781 337.757812 695.402344 339.132812 C 695.378906 340.507812 694.253906 341.613281 692.878906 341.613281 L 615.5 341.613281 C 614.125 341.613281 613.019531 340.507812 613.042969 339.132812 C 613.066406 337.757812 614.210938 336.652344 615.585938 336.652344 Z M 692.964844 336.652344 " fill-opacity="1" fill-rule="nonzero"/><path fill="#e8e9fd" d="M 613.558594 309.183594 C 613.582031 307.824219 614.726562 306.703125 616.105469 306.703125 L 693.480469 306.703125 C 694.855469 306.703125 695.941406 307.824219 695.917969 309.183594 C 695.894531 310.558594 694.769531 311.679688 693.394531 311.679688 L 616.019531 311.679688 C 614.640625 311.679688 613.535156 310.558594 613.558594 309.183594 Z M 613.558594 309.183594 " fill-opacity="1" fill-rule="nonzero"/><path fill="#e8e9fd" d="M 613.714844 279.464844 C 613.738281 278.109375 614.863281 276.984375 616.242188 276.984375 L 693.617188 276.984375 C 694.992188 276.984375 696.082031 278.109375 696.058594 279.464844 C 696.03125 280.839844 694.90625 281.964844 693.53125 281.964844 L 616.15625 281.964844 C 614.78125 281.964844 613.691406 280.839844 613.714844 279.464844 Z M 613.714844 279.464844 " fill-opacity="1" fill-rule="nonzero"/><path fill="#e8e9fd" d="M 614.859375 213.050781 C 614.882812 211.675781 616.011719 210.550781 617.386719 210.550781 L 694.761719 210.550781 C 696.136719 210.550781 697.226562 211.675781 697.203125 213.050781 C 697.179688 214.40625 696.050781 215.53125 694.675781 215.53125 L 617.300781 215.53125 C 615.925781 215.53125 614.835938 214.40625 614.859375 213.050781 Z M 614.859375 213.050781 " fill-opacity="1" fill-rule="nonzero"/><path fill="#e8e9fd" d="M 614.628906 226.4375 C 614.652344 225.0625 615.78125 223.957031 617.15625 223.957031 L 713.28125 223.957031 C 714.65625 223.957031 715.761719 225.0625 715.738281 226.4375 C 715.714844 227.8125 714.570312 228.917969 713.195312 228.917969 L 617.070312 228.917969 C 615.695312 228.917969 614.605469 227.8125 614.628906 226.4375 Z M 614.628906 226.4375 " fill-opacity="1" fill-rule="nonzero"/><path fill="#e8e9fd" d="M 613.972656 264.507812 C 613.996094 263.132812 615.125 262.027344 616.5 262.027344 L 714.859375 262.027344 C 716.234375 262.027344 717.320312 263.132812 717.296875 264.507812 C 717.273438 265.882812 716.148438 266.988281 714.773438 266.988281 L 616.414062 266.988281 C 615.039062 266.988281 613.949219 265.882812 613.972656 264.507812 Z M 613.972656 264.507812 " fill-opacity="1" fill-rule="nonzero"/><path fill="#fe6081" d="M 500.589844 235.503906 L 501.007812 211.339844 L 491.472656 211.339844 L 491.570312 205.726562 L 517.53125 205.726562 L 517.433594 211.339844 L 507.902344 211.339844 L 507.484375 235.503906 Z M 500.589844 235.503906 " fill-opacity="1" fill-rule="nonzero"/><path fill="#fe6081" d="M 640.359375 291.964844 C 639.964844 314.808594 621.132812 333.335938 598.257812 333.335938 C 575.40625 333.335938 557.1875 314.808594 557.578125 291.964844 C 557.972656 269.101562 576.832031 250.597656 599.683594 250.597656 C 622.5625 250.597656 640.753906 269.101562 640.359375 291.964844 Z M 640.359375 291.964844 " fill-opacity="1" fill-rule="nonzero"/><path fill="#ffffff" d="M 613.320312 297.445312 L 597.816406 307.722656 C 593.417969 310.648438 587.574219 307.519531 587.667969 302.238281 L 588.023438 281.679688 C 588.113281 276.398438 594.0625 273.269531 598.359375 276.234375 L 613.507812 286.472656 C 617.363281 289.113281 617.265625 294.804688 613.320312 297.445312 Z M 613.320312 297.445312 " fill-opacity="1" fill-rule="nonzero"/><path fill="#fec3bd" d="M 431.769531 513.769531 C 425.601562 520.964844 371.449219 536.425781 371.449219 536.425781 L 353.609375 502.023438 C 353.609375 502.023438 379.316406 468.246094 386.609375 469.15625 C 393.816406 470.074219 383.714844 488.363281 383.714844 488.363281 C 387.4375 486.046875 415.15625 468.882812 416.683594 477.132812 C 417.238281 480.132812 412.890625 485.9375 410.609375 487.808594 C 418.703125 484.246094 431.1875 481.328125 432.167969 485.328125 C 433.527344 490.898438 423.582031 494.976562 420.042969 496.242188 C 423.699219 495.082031 434.386719 492.164062 434.59375 497.882812 C 434.722656 501.363281 426.464844 504.777344 422.789062 506.671875 C 425.929688 506.273438 435.796875 509.089844 431.769531 513.769531 Z M 431.769531 513.769531 " fill-opacity="1" fill-rule="nonzero"/><path fill="#0e1738" d="M 176.308594 802.726562 L 249.175781 802.726562 L 236.09375 685.410156 L 162.472656 689.757812 L 162.535156 690.203125 Z M 176.308594 802.726562 " fill-opacity="1" fill-rule="nonzero"/><path fill="#06112d" d="M 177.300781 802.726562 L 181.882812 694.738281 L 162.535156 690.203125 L 176.308594 802.726562 Z M 177.300781 802.726562 " fill-opacity="1" fill-rule="nonzero"/><path fill="#0e1738" d="M 170.917969 802.726562 L 175.5 694.738281 L 87.863281 674.21875 L 84.859375 802.726562 Z M 170.917969 802.726562 " fill-opacity="1" fill-rule="nonzero"/><path fill="#06112d" d="M 172.253906 300.796875 C 172.730469 307.339844 175.691406 313.621094 180.289062 317.832031 C 186.929688 323.917969 196.816406 325.25 204.691406 321.332031 C 208.449219 319.464844 211.988281 316.085938 212.507812 311.59375 C 212.964844 307.617188 210.976562 303.820312 208.945312 300.480469 C 203.835938 292.089844 197.949219 284.320312 191.367188 277.28125 L 177.722656 282.570312 C 173.785156 287.519531 171.773438 294.238281 172.253906 300.796875 Z M 172.253906 300.796875 " fill-opacity="1" fill-rule="nonzero"/><path fill="#fe6081" d="M 378.34375 538.671875 C 378.34375 538.671875 311.601562 602.574219 274.855469 605.261719 C 272.105469 605.480469 269.515625 605.34375 267.101562 604.828125 C 250.234375 601.171875 229.210938 577.847656 213.152344 556.65625 C 198.851562 537.777344 188.488281 520.601562 188.488281 520.601562 L 210.242188 430.855469 C 225.117188 441.886719 253.511719 490.679688 283.417969 532.109375 L 355.117188 494.335938 Z M 378.34375 538.671875 " fill-opacity="1" fill-rule="nonzero"/><path fill="#b94768" d="M 274.855469 605.261719 C 272.105469 605.480469 269.515625 605.34375 267.101562 604.828125 C 250.234375 601.171875 229.210938 577.847656 213.152344 556.65625 L 211.234375 530.464844 L 227.609375 467.109375 C 227.609375 467.109375 254.882812 571.164062 274.855469 605.261719 Z M 274.855469 605.261719 " fill-opacity="1" fill-rule="nonzero"/><path fill="#fe6081" d="M 244.652344 691.796875 C 244.929688 706.167969 80.03125 705.738281 79.773438 691.371094 C 80.109375 686.25 80.542969 679.292969 81.039062 671.445312 C 82.820312 642.683594 85.152344 601.980469 84.597656 595.617188 C 83.414062 581.996094 74 533.941406 70.496094 494.644531 C 68.382812 471.0625 68.382812 450.644531 73.582031 442.738281 C 83.808594 427.160156 123.539062 425.144531 123.539062 425.144531 L 171.40625 421.960938 C 171.40625 421.960938 200.113281 422.5625 210.242188 430.863281 C 240.402344 455.566406 236.191406 580.652344 236.191406 580.652344 C 236.191406 580.652344 240.796875 661.21875 244.652344 691.796875 Z M 244.652344 691.796875 " fill-opacity="1" fill-rule="nonzero"/><path fill="#b94768" d="M 115.09375 637.246094 L 92.796875 676.980469 L 81.039062 671.445312 C 82.820312 642.683594 85.152344 601.980469 84.597656 595.617188 C 83.414062 581.996094 74 533.941406 70.496094 494.644531 L 100.996094 455.566406 C 100.996094 455.566406 112.839844 475.351562 112.347656 494.132812 C 111.851562 512.910156 86.457031 572.210938 86.457031 572.210938 Z M 115.09375 637.246094 " fill-opacity="1" fill-rule="nonzero"/><path fill="#fec3bd" d="M 160.992188 449.34375 C 140.773438 448.378906 122.816406 425.816406 122.789062 425.136719 C 122.042969 408.90625 118.613281 371.441406 115.242188 359.84375 C 114.492188 357.285156 116.679688 354.886719 119.007812 355.691406 L 168.667969 372.679688 C 170.191406 373.207031 171.082031 374.957031 170.671875 376.660156 C 170.050781 379.308594 169.597656 381.957031 169.289062 384.527344 C 169.175781 385.457031 169.089844 386.371094 169.003906 387.285156 C 168.371094 395.042969 168.949219 402.105469 169.726562 407.28125 C 169.894531 408.410156 170.105469 410.378906 170.359375 412.636719 C 170.359375 412.652344 170.359375 412.652344 170.359375 412.652344 C 170.96875 418.460938 171.179688 421.933594 171.40625 422.785156 C 171.519531 423.203125 172.417969 449.890625 160.992188 449.34375 Z M 160.992188 449.34375 " fill-opacity="1" fill-rule="nonzero"/><path fill="#f18b89" d="M 170.359375 412.636719 C 170.359375 412.652344 170.359375 412.652344 170.359375 412.652344 C 170.359375 412.652344 142.847656 401.527344 137.988281 391.964844 C 131.578125 379.34375 164.984375 385.457031 164.984375 385.457031 C 164.984375 385.457031 166.734375 386.246094 169.003906 387.285156 C 168.371094 395.042969 168.949219 402.105469 169.726562 407.28125 C 169.894531 408.410156 170.105469 410.378906 170.359375 412.636719 Z M 170.359375 412.636719 " fill-opacity="1" fill-rule="nonzero"/><path fill="#fec3bd" d="M 182.144531 402.546875 C 152.152344 410.625 125.375 380.441406 118.042969 367.878906 L 118.042969 367.867188 C 116.75 365.640625 115.875 363.910156 115.414062 362.964844 C 115.160156 362.4375 114.78125 362.003906 114.296875 361.679688 C 110.421875 359.085938 92.875 346.578125 97.28125 335.480469 C 100.15625 328.257812 105.074219 327.402344 108.695312 327.960938 C 110.820312 328.285156 112.675781 326.414062 112.390625 324.28125 C 104.589844 266.332031 168.449219 268.84375 186.023438 294.996094 C 186.796875 296.144531 187.585938 297.554688 188.378906 299.195312 C 199.8125 322.566406 214.363281 393.867188 182.144531 402.546875 Z M 182.144531 402.546875 " fill-opacity="1" fill-rule="nonzero"/><path fill="#06112d" d="M 160.144531 340.40625 C 160.164062 340.769531 160.15625 341.125 160.125 341.480469 C 160.09375 341.839844 160.039062 342.183594 159.964844 342.523438 C 159.886719 342.859375 159.789062 343.179688 159.667969 343.488281 C 159.546875 343.792969 159.410156 344.078125 159.25 344.339844 C 159.09375 344.601562 158.917969 344.839844 158.726562 345.046875 C 158.535156 345.257812 158.332031 345.4375 158.117188 345.585938 C 157.902344 345.730469 157.675781 345.847656 157.445312 345.929688 C 157.210938 346.007812 156.972656 346.054688 156.734375 346.066406 C 156.492188 346.078125 156.253906 346.054688 156.015625 345.992188 C 155.773438 345.933594 155.542969 345.839844 155.3125 345.710938 C 155.085938 345.585938 154.863281 345.425781 154.65625 345.234375 C 154.445312 345.042969 154.25 344.824219 154.070312 344.578125 C 153.886719 344.328125 153.722656 344.058594 153.574219 343.765625 C 153.429688 343.472656 153.300781 343.160156 153.195312 342.832031 C 153.085938 342.503906 153 342.164062 152.9375 341.8125 C 152.875 341.460938 152.835938 341.105469 152.820312 340.742188 C 152.800781 340.382812 152.808594 340.023438 152.839844 339.667969 C 152.871094 339.3125 152.925781 338.96875 153 338.628906 C 153.078125 338.292969 153.175781 337.96875 153.296875 337.664062 C 153.417969 337.359375 153.554688 337.074219 153.714844 336.8125 C 153.871094 336.550781 154.046875 336.3125 154.238281 336.105469 C 154.429688 335.894531 154.632812 335.714844 154.847656 335.566406 C 155.0625 335.417969 155.289062 335.304688 155.519531 335.222656 C 155.753906 335.140625 155.988281 335.097656 156.230469 335.085938 C 156.472656 335.074219 156.710938 335.097656 156.949219 335.15625 C 157.1875 335.21875 157.421875 335.3125 157.652344 335.4375 C 157.878906 335.566406 158.097656 335.726562 158.308594 335.917969 C 158.515625 336.109375 158.710938 336.328125 158.894531 336.574219 C 159.078125 336.820312 159.242188 337.09375 159.386719 337.386719 C 159.535156 337.679688 159.664062 337.992188 159.769531 338.320312 C 159.878906 338.648438 159.964844 338.988281 160.027344 339.339844 C 160.089844 339.691406 160.128906 340.046875 160.144531 340.40625 Z M 160.144531 340.40625 " fill-opacity="1" fill-rule="nonzero"/><path fill="#06112d" d="M 150.910156 332.34375 C 150.636719 332.34375 150.363281 332.222656 150.179688 331.988281 C 149.855469 331.585938 149.921875 330.996094 150.328125 330.675781 C 157.394531 325.042969 161.832031 328.898438 162.015625 329.066406 C 162.398438 329.414062 162.429688 330.003906 162.082031 330.386719 C 161.738281 330.769531 161.152344 330.800781 160.765625 330.460938 C 160.617188 330.328125 157.261719 327.542969 151.492188 332.136719 C 151.320312 332.273438 151.113281 332.34375 150.910156 332.34375 Z M 150.910156 332.34375 " fill-opacity="1" fill-rule="nonzero"/><path fill="#06112d" d="M 191.136719 340.40625 C 191.152344 340.769531 191.144531 341.125 191.113281 341.484375 C 191.082031 341.839844 191.027344 342.183594 190.953125 342.523438 C 190.875 342.859375 190.777344 343.179688 190.65625 343.488281 C 190.539062 343.792969 190.398438 344.078125 190.238281 344.339844 C 190.082031 344.601562 189.90625 344.839844 189.714844 345.046875 C 189.523438 345.257812 189.320312 345.4375 189.105469 345.585938 C 188.890625 345.734375 188.664062 345.847656 188.433594 345.929688 C 188.199219 346.007812 187.964844 346.054688 187.722656 346.066406 C 187.484375 346.078125 187.242188 346.054688 187.003906 345.992188 C 186.765625 345.933594 186.53125 345.839844 186.300781 345.710938 C 186.074219 345.585938 185.855469 345.425781 185.644531 345.234375 C 185.4375 345.042969 185.242188 344.824219 185.058594 344.578125 C 184.878906 344.328125 184.710938 344.058594 184.566406 343.765625 C 184.417969 343.472656 184.289062 343.160156 184.183594 342.832031 C 184.074219 342.503906 183.992188 342.164062 183.925781 341.8125 C 183.863281 341.460938 183.824219 341.105469 183.808594 340.742188 C 183.792969 340.382812 183.796875 340.023438 183.828125 339.667969 C 183.859375 339.3125 183.914062 338.96875 183.992188 338.628906 C 184.066406 338.292969 184.164062 337.972656 184.285156 337.664062 C 184.40625 337.359375 184.542969 337.074219 184.703125 336.8125 C 184.859375 336.550781 185.035156 336.3125 185.226562 336.105469 C 185.417969 335.894531 185.621094 335.714844 185.835938 335.566406 C 186.054688 335.417969 186.277344 335.304688 186.507812 335.222656 C 186.742188 335.140625 186.980469 335.097656 187.21875 335.085938 C 187.460938 335.074219 187.699219 335.097656 187.9375 335.15625 C 188.179688 335.21875 188.414062 335.3125 188.640625 335.4375 C 188.871094 335.566406 189.089844 335.726562 189.296875 335.917969 C 189.507812 336.109375 189.703125 336.328125 189.882812 336.574219 C 190.066406 336.820312 190.230469 337.09375 190.378906 337.386719 C 190.523438 337.679688 190.652344 337.992188 190.757812 338.320312 C 190.867188 338.648438 190.953125 338.988281 191.015625 339.339844 C 191.078125 339.691406 191.117188 340.046875 191.136719 340.40625 Z M 191.136719 340.40625 " fill-opacity="1" fill-rule="nonzero"/><path fill="#06112d" d="M 181.898438 332.34375 C 181.625 332.34375 181.351562 332.222656 181.167969 331.988281 C 180.84375 331.585938 180.914062 330.996094 181.316406 330.675781 C 188.386719 325.042969 192.820312 328.898438 193.003906 329.066406 C 193.390625 329.410156 193.421875 330.003906 193.074219 330.386719 C 192.726562 330.769531 192.144531 330.800781 191.757812 330.460938 C 191.609375 330.332031 188.246094 327.546875 182.480469 332.136719 C 182.3125 332.273438 182.105469 332.34375 181.898438 332.34375 Z M 181.898438 332.34375 " fill-opacity="1" fill-rule="nonzero"/><path fill="#f18b89" d="M 178.28125 369.257812 C 178.023438 369.257812 177.765625 369.152344 177.582031 368.945312 C 177.238281 368.558594 177.269531 367.96875 177.660156 367.625 C 178.714844 366.683594 179.320312 365.433594 179.363281 364.101562 C 179.398438 362.808594 178.890625 361.566406 177.933594 360.601562 C 177.515625 360.183594 177.015625 359.800781 176.488281 359.398438 C 176.132812 359.128906 175.78125 358.855469 175.449219 358.574219 C 173.117188 356.59375 171.546875 353.8125 170.910156 350.53125 C 170.351562 347.652344 170.527344 344.777344 170.699219 341.992188 C 170.730469 341.476562 171.152344 341.082031 171.6875 341.117188 C 172.207031 341.148438 172.597656 341.589844 172.566406 342.105469 C 172.402344 344.773438 172.234375 347.53125 172.746094 350.175781 C 173.300781 353.035156 174.65625 355.445312 176.660156 357.148438 C 176.972656 357.414062 177.296875 357.664062 177.625 357.914062 C 178.179688 358.335938 178.75 358.773438 179.257812 359.28125 C 180.582031 360.613281 181.285156 362.34375 181.230469 364.160156 C 181.175781 366.007812 180.351562 367.734375 178.902344 369.023438 C 178.722656 369.179688 178.5 369.257812 178.28125 369.257812 Z M 178.28125 369.257812 " fill-opacity="1" fill-rule="nonzero"/><path fill="#f18b89" d="M 169.132812 384.476562 C 164.429688 384.476562 159.773438 382.011719 157.15625 378.101562 C 156.867188 377.671875 156.984375 377.089844 157.414062 376.804688 C 157.84375 376.515625 158.421875 376.628906 158.710938 377.0625 C 161.070312 380.582031 165.304688 382.757812 169.5625 382.597656 C 170.042969 382.589844 170.511719 382.980469 170.53125 383.496094 C 170.550781 384.015625 170.148438 384.449219 169.632812 384.46875 C 169.464844 384.472656 169.296875 384.476562 169.132812 384.476562 Z M 169.132812 384.476562 " fill-opacity="1" fill-rule="nonzero"/><path fill="#f18b89" d="M 169.132812 384.476562 C 164.429688 384.476562 159.773438 382.011719 157.15625 378.101562 C 156.867188 377.671875 156.984375 377.089844 157.414062 376.804688 C 157.84375 376.515625 158.421875 376.628906 158.710938 377.0625 C 161.070312 380.582031 165.304688 382.757812 169.5625 382.597656 C 170.042969 382.589844 170.511719 382.980469 170.53125 383.496094 C 170.550781 384.015625 170.148438 384.449219 169.632812 384.46875 C 169.464844 384.472656 169.296875 384.476562 169.132812 384.476562 Z M 169.132812 384.476562 " fill-opacity="1" fill-rule="nonzero"/><path fill="#fec3bd" d="M 126.40625 702.824219 C 118.757812 700.488281 88.511719 663.867188 88.511719 663.867188 L 109.09375 638.457031 C 109.09375 638.457031 143.90625 646.917969 145.664062 652.859375 C 147.386719 658.738281 129.832031 657.109375 129.832031 657.109375 C 132.878906 659.203125 155.519531 674.824219 149.652344 678.792969 C 147.519531 680.234375 141.558594 678.835938 139.34375 677.703125 C 144.832031 682.753906 151.304688 691.417969 148.542969 693.523438 C 144.695312 696.457031 138.179688 690.152344 136.003906 687.84375 C 138.140625 690.277344 144.003906 697.550781 139.652344 699.640625 C 137.003906 700.914062 131.570312 695.6875 128.867188 693.488281 C 130.234375 695.777344 131.390625 704.355469 126.40625 702.824219 Z M 126.40625 702.824219 " fill-opacity="1" fill-rule="nonzero"/><path fill="#fe6081" d="M 77.4375 438.496094 C 64.722656 447.472656 -0.0507812 541.261719 4.578125 582.097656 C 8.046875 612.730469 92.796875 676.980469 92.796875 676.980469 L 115.089844 637.253906 L 59.621094 575.507812 C 59.621094 575.507812 106.371094 515.148438 106.90625 488.203125 C 107.898438 438.496094 77.4375 438.496094 77.4375 438.496094 Z M 77.4375 438.496094 " fill-opacity="1" fill-rule="nonzero"/><path fill="#06112d" d="M 216.9375 267.121094 C 225.945312 275.40625 224.777344 290.585938 217.460938 299.691406 C 213.898438 304.132812 208.507812 307.0625 202.84375 307.640625 C 202.984375 306.675781 203.128906 305.710938 203.273438 304.746094 C 200.539062 309.609375 195.582031 313.160156 190.097656 314.1875 C 184.613281 315.210938 178.703125 313.691406 174.398438 310.148438 C 170.894531 307.265625 168.378906 303.117188 164.320312 301.09375 C 159.535156 298.707031 153.160156 300.148438 149.871094 304.363281 C 149.539062 303.535156 149.207031 302.703125 148.875 301.875 C 151.988281 301.8125 154.335938 305.222656 154.078125 308.328125 C 153.820312 311.433594 151.671875 314.070312 149.25 316.027344 C 143.105469 320.996094 135.753906 321.941406 128.175781 320.945312 C 123.925781 320.382812 123.222656 321.0625 122.671875 325.675781 C 122.234375 329.332031 122.804688 333.03125 122.699219 336.699219 C 122.652344 338.324219 121.425781 339.675781 119.8125 339.882812 C 118.28125 340.082031 116.816406 339.191406 116.28125 337.742188 L 113.722656 330.765625 C 113.40625 329.910156 112.753906 329.207031 111.910156 328.863281 C 108.816406 327.597656 101.179688 325.695312 97.28125 335.480469 C 92.875 346.578125 110.421875 359.085938 114.296875 361.679688 C 114.78125 362.003906 115.160156 362.4375 115.414062 362.964844 C 115.875 363.910156 116.75 365.640625 118.042969 367.878906 L 120.855469 378.871094 C 121.65625 382.003906 121.609375 407.785156 121.609375 407.785156 C 110.628906 393.421875 101.066406 375.441406 92.492188 359.535156 C 87.289062 349.886719 82.441406 339.816406 79.53125 329.210938 C 78.316406 324.804688 78.113281 320.507812 77.441406 316.050781 C 76.359375 308.871094 74.949219 302.558594 80.660156 296.570312 C 83.007812 294.113281 86.292969 291.984375 86.664062 288.609375 C 87.242188 283.335938 80.179688 278.601562 82.488281 273.824219 C 83.765625 271.175781 87.179688 270.527344 90.109375 270.207031 C 98.015625 269.347656 105.921875 268.484375 113.828125 267.621094 C 110.859375 266.007812 109.957031 261.832031 111.339844 258.75 C 112.726562 255.667969 115.871094 253.664062 119.140625 252.824219 C 122.414062 251.980469 125.851562 252.132812 129.226562 252.289062 C 134.316406 252.527344 139.402344 252.765625 144.492188 253.003906 C 146.511719 253.097656 148.601562 253.210938 150.394531 254.136719 C 152.191406 255.066406 153.605469 257.050781 153.210938 259.03125 C 150.65625 256.679688 151.769531 252.113281 154.503906 249.972656 C 157.238281 247.835938 160.914062 247.453125 164.375 247.15625 C 171.804688 246.511719 179.460938 245.894531 186.574219 248.144531 C 193.683594 250.390625 200.191406 256.253906 200.832031 263.679688 C 206.195312 261.484375 212.675781 263.195312 216.9375 267.121094 Z M 216.9375 267.121094 " fill-opacity="1" fill-rule="nonzero"/><path fill="#f9dae0" d="M 316.714844 293.710938 C 305.761719 293.710938 300.3125 268.992188 300.742188 245.734375 C 301.171875 222.480469 307.539062 197.761719 318.488281 197.761719 C 329.441406 197.761719 334.894531 222.480469 334.460938 245.734375 C 334.03125 268.992188 327.664062 293.710938 316.714844 293.710938 Z M 318.429688 201.085938 C 312.039062 201.085938 304.578125 219.421875 304.09375 245.734375 C 303.605469 272.050781 310.386719 290.386719 316.773438 290.386719 C 323.164062 290.386719 330.625 272.050781 331.113281 245.734375 C 331.597656 219.421875 324.820312 201.085938 318.429688 201.085938 Z M 318.429688 201.085938 " fill-opacity="1" fill-rule="nonzero"/><path fill="#f9dae0" d="M 285.632812 272.515625 C 279.703125 272.515625 275.808594 270.90625 274.21875 267.738281 C 269.375 258.085938 289.113281 241.539062 310.144531 230.875 C 321.484375 225.121094 332.878906 221.121094 342.226562 219.609375 C 352.324219 217.980469 358.8125 219.402344 360.984375 223.734375 C 363.15625 228.0625 360.441406 234.152344 353.132812 241.351562 C 346.371094 248.011719 336.398438 254.847656 325.058594 260.597656 L 324.316406 259.121094 L 325.058594 260.597656 C 313.71875 266.351562 302.324219 270.351562 292.976562 271.859375 C 290.261719 272.300781 287.808594 272.515625 285.632812 272.515625 Z M 349.441406 222.292969 C 347.460938 222.292969 345.195312 222.488281 342.707031 222.890625 C 333.695312 224.347656 322.660156 228.230469 311.625 233.828125 C 287.832031 245.894531 274.398438 260.582031 277.226562 266.214844 C 278.628906 269.015625 284.339844 269.898438 292.5 268.582031 C 301.507812 267.125 312.542969 263.242188 323.578125 257.644531 C 334.609375 252.050781 344.277344 245.433594 350.796875 239.011719 C 356.699219 233.199219 359.382812 228.058594 357.980469 225.257812 C 357.003906 223.3125 353.949219 222.292969 349.441406 222.292969 Z M 349.441406 222.292969 " fill-opacity="1" fill-rule="nonzero"/><path fill="#f9dae0" d="M 348.574219 272.558594 C 338.183594 272.558594 323.023438 267.539062 309.59375 260.597656 C 288.957031 249.933594 269.832031 233.386719 275.035156 223.734375 C 277.367188 219.402344 283.902344 217.976562 293.945312 219.609375 C 303.238281 221.121094 314.484375 225.121094 325.609375 230.875 C 336.738281 236.625 346.453125 243.460938 352.972656 250.121094 C 360.011719 257.316406 362.503906 263.410156 360.167969 267.738281 C 358.351562 271.109375 354.152344 272.558594 348.574219 272.558594 Z M 311.183594 257.644531 C 334.53125 269.714844 354.1875 271.847656 357.21875 266.214844 C 358.730469 263.414062 356.234375 258.273438 350.546875 252.457031 C 344.265625 246.039062 334.84375 239.421875 324.019531 233.828125 C 313.191406 228.230469 302.300781 224.347656 293.34375 222.890625 C 285.234375 221.574219 279.492188 222.457031 277.984375 225.257812 C 274.949219 230.890625 287.835938 245.578125 311.183594 257.644531 Z M 311.183594 257.644531 " fill-opacity="1" fill-rule="nonzero"/><path fill="#fe6081" d="M 322.921875 242.195312 C 323.152344 242.539062 323.34375 242.898438 323.5 243.28125 C 323.652344 243.660156 323.769531 244.054688 323.847656 244.460938 C 323.921875 244.863281 323.960938 245.273438 323.957031 245.6875 C 323.949219 246.101562 323.90625 246.511719 323.820312 246.917969 C 323.734375 247.324219 323.609375 247.71875 323.445312 248.101562 C 323.28125 248.488281 323.082031 248.851562 322.847656 249.195312 C 322.609375 249.542969 322.34375 249.863281 322.046875 250.15625 C 321.746094 250.453125 321.425781 250.714844 321.074219 250.949219 C 320.726562 251.179688 320.355469 251.378906 319.96875 251.539062 C 319.582031 251.699219 319.183594 251.824219 318.773438 251.90625 C 318.363281 251.992188 317.949219 252.035156 317.535156 252.035156 C 317.117188 252.039062 316.703125 252.003906 316.296875 251.925781 C 315.886719 251.847656 315.492188 251.730469 315.105469 251.574219 C 314.722656 251.417969 314.359375 251.226562 314.015625 251 C 313.671875 250.773438 313.351562 250.515625 313.0625 250.222656 C 312.769531 249.933594 312.507812 249.617188 312.28125 249.273438 C 312.054688 248.933594 311.863281 248.570312 311.707031 248.191406 C 311.550781 247.808594 311.433594 247.414062 311.359375 247.011719 C 311.28125 246.605469 311.246094 246.195312 311.25 245.78125 C 311.253906 245.367188 311.300781 244.957031 311.386719 244.550781 C 311.46875 244.144531 311.59375 243.75 311.757812 243.367188 C 311.921875 242.984375 312.121094 242.617188 312.359375 242.273438 C 312.59375 241.925781 312.859375 241.605469 313.160156 241.3125 C 313.457031 241.015625 313.78125 240.753906 314.128906 240.519531 C 314.480469 240.289062 314.847656 240.09375 315.234375 239.929688 C 315.621094 239.769531 316.019531 239.648438 316.429688 239.5625 C 316.839844 239.480469 317.253906 239.4375 317.671875 239.433594 C 318.089844 239.429688 318.5 239.46875 318.910156 239.546875 C 319.316406 239.621094 319.714844 239.738281 320.097656 239.894531 C 320.480469 240.050781 320.84375 240.242188 321.1875 240.46875 C 321.535156 240.695312 321.851562 240.957031 322.144531 241.246094 C 322.433594 241.535156 322.695312 241.851562 322.921875 242.195312 Z M 322.921875 242.195312 " fill-opacity="1" fill-rule="nonzero"/><path fill="#3a6dc9" d="M 353.132812 217.292969 C 353.363281 217.636719 353.554688 218 353.710938 218.378906 C 353.863281 218.761719 353.980469 219.15625 354.058594 219.558594 C 354.136719 219.964844 354.171875 220.375 354.167969 220.789062 C 354.160156 221.203125 354.117188 221.613281 354.03125 222.019531 C 353.945312 222.425781 353.820312 222.820312 353.65625 223.203125 C 353.492188 223.585938 353.292969 223.953125 353.058594 224.296875 C 352.820312 224.644531 352.554688 224.964844 352.257812 225.257812 C 351.957031 225.550781 351.636719 225.816406 351.285156 226.046875 C 350.9375 226.28125 350.566406 226.476562 350.179688 226.640625 C 349.792969 226.800781 349.394531 226.921875 348.984375 227.007812 C 348.574219 227.089844 348.160156 227.132812 347.746094 227.136719 C 347.328125 227.140625 346.914062 227.101562 346.507812 227.023438 C 346.097656 226.945312 345.703125 226.832031 345.320312 226.675781 C 344.933594 226.519531 344.570312 226.328125 344.226562 226.101562 C 343.882812 225.875 343.5625 225.613281 343.273438 225.324219 C 342.980469 225.035156 342.71875 224.71875 342.492188 224.375 C 342.265625 224.03125 342.074219 223.671875 341.917969 223.289062 C 341.761719 222.910156 341.644531 222.515625 341.570312 222.109375 C 341.492188 221.703125 341.457031 221.296875 341.460938 220.882812 C 341.464844 220.46875 341.511719 220.058594 341.597656 219.652344 C 341.683594 219.246094 341.804688 218.851562 341.96875 218.464844 C 342.132812 218.082031 342.332031 217.71875 342.570312 217.371094 C 342.804688 217.027344 343.070312 216.707031 343.371094 216.410156 C 343.667969 216.117188 343.992188 215.851562 344.339844 215.621094 C 344.691406 215.386719 345.058594 215.191406 345.445312 215.03125 C 345.832031 214.871094 346.230469 214.746094 346.640625 214.664062 C 347.050781 214.578125 347.464844 214.535156 347.882812 214.53125 C 348.300781 214.53125 348.710938 214.566406 349.121094 214.644531 C 349.527344 214.722656 349.925781 214.839844 350.308594 214.996094 C 350.691406 215.152344 351.054688 215.34375 351.402344 215.570312 C 351.746094 215.796875 352.0625 216.054688 352.355469 216.347656 C 352.644531 216.636719 352.90625 216.953125 353.132812 217.292969 Z M 353.132812 217.292969 " fill-opacity="1" fill-rule="nonzero"/><path fill="#fcc283" d="M 289.21875 217.292969 C 289.445312 217.636719 289.640625 218 289.792969 218.378906 C 289.949219 218.761719 290.066406 219.15625 290.144531 219.558594 C 290.21875 219.964844 290.257812 220.375 290.25 220.789062 C 290.246094 221.203125 290.203125 221.613281 290.117188 222.019531 C 290.03125 222.425781 289.90625 222.820312 289.742188 223.203125 C 289.578125 223.585938 289.378906 223.953125 289.140625 224.296875 C 288.90625 224.644531 288.640625 224.964844 288.34375 225.257812 C 288.042969 225.550781 287.71875 225.816406 287.371094 226.046875 C 287.019531 226.28125 286.652344 226.476562 286.265625 226.640625 C 285.878906 226.800781 285.480469 226.921875 285.070312 227.007812 C 284.660156 227.089844 284.246094 227.132812 283.828125 227.136719 C 283.414062 227.140625 283 227.101562 282.589844 227.023438 C 282.183594 226.945312 281.789062 226.832031 281.402344 226.675781 C 281.019531 226.519531 280.65625 226.328125 280.3125 226.101562 C 279.96875 225.875 279.648438 225.613281 279.355469 225.324219 C 279.066406 225.035156 278.804688 224.71875 278.578125 224.375 C 278.351562 224.03125 278.15625 223.671875 278.003906 223.289062 C 277.847656 222.910156 277.730469 222.515625 277.652344 222.109375 C 277.578125 221.703125 277.539062 221.296875 277.546875 220.882812 C 277.550781 220.46875 277.59375 220.058594 277.679688 219.652344 C 277.765625 219.246094 277.890625 218.851562 278.054688 218.464844 C 278.21875 218.082031 278.417969 217.71875 278.65625 217.371094 C 278.890625 217.027344 279.15625 216.707031 279.453125 216.410156 C 279.753906 216.117188 280.078125 215.851562 280.425781 215.621094 C 280.777344 215.386719 281.144531 215.191406 281.53125 215.03125 C 281.917969 214.871094 282.316406 214.746094 282.726562 214.664062 C 283.136719 214.578125 283.550781 214.535156 283.96875 214.53125 C 284.382812 214.53125 284.796875 214.566406 285.207031 214.644531 C 285.613281 214.722656 286.011719 214.839844 286.394531 214.996094 C 286.777344 215.152344 287.140625 215.34375 287.484375 215.570312 C 287.828125 215.796875 288.148438 216.054688 288.441406 216.347656 C 288.730469 216.636719 288.992188 216.953125 289.21875 217.292969 Z M 289.21875 217.292969 " fill-opacity="1" fill-rule="nonzero"/><path fill="#37c092" d="M 361.433594 263.542969 C 361.660156 263.886719 361.851562 264.25 362.007812 264.628906 C 362.164062 265.011719 362.277344 265.402344 362.355469 265.808594 C 362.433594 266.214844 362.46875 266.625 362.464844 267.039062 C 362.460938 267.449219 362.414062 267.859375 362.328125 268.265625 C 362.242188 268.675781 362.117188 269.070312 361.953125 269.453125 C 361.789062 269.835938 361.589844 270.199219 361.355469 270.546875 C 361.121094 270.890625 360.851562 271.210938 360.554688 271.507812 C 360.257812 271.800781 359.933594 272.066406 359.585938 272.296875 C 359.234375 272.53125 358.867188 272.726562 358.480469 272.886719 C 358.09375 273.050781 357.695312 273.171875 357.285156 273.253906 C 356.875 273.339844 356.460938 273.382812 356.042969 273.386719 C 355.625 273.390625 355.210938 273.351562 354.804688 273.273438 C 354.394531 273.195312 354 273.078125 353.617188 272.925781 C 353.234375 272.769531 352.867188 272.578125 352.523438 272.347656 C 352.179688 272.121094 351.863281 271.863281 351.570312 271.574219 C 351.277344 271.28125 351.019531 270.964844 350.792969 270.625 C 350.5625 270.28125 350.371094 269.917969 350.214844 269.539062 C 350.058594 269.15625 349.945312 268.765625 349.867188 268.359375 C 349.789062 267.953125 349.753906 267.542969 349.757812 267.128906 C 349.761719 266.71875 349.808594 266.308594 349.894531 265.898438 C 349.980469 265.492188 350.105469 265.097656 350.269531 264.714844 C 350.433594 264.332031 350.632812 263.96875 350.867188 263.621094 C 351.101562 263.277344 351.371094 262.957031 351.667969 262.660156 C 351.964844 262.367188 352.289062 262.101562 352.640625 261.871094 C 352.988281 261.636719 353.355469 261.441406 353.746094 261.28125 C 354.132812 261.117188 354.53125 260.996094 354.941406 260.914062 C 355.351562 260.828125 355.761719 260.785156 356.179688 260.78125 C 356.597656 260.777344 357.011719 260.816406 357.417969 260.894531 C 357.828125 260.972656 358.222656 261.089844 358.605469 261.242188 C 358.992188 261.398438 359.355469 261.589844 359.699219 261.816406 C 360.042969 262.046875 360.359375 262.304688 360.652344 262.59375 C 360.945312 262.886719 361.203125 263.203125 361.433594 263.542969 Z M 361.433594 263.542969 " fill-opacity="1" fill-rule="nonzero"/><path fill="#fe6081" d="M 717.605469 535.6875 L 717.605469 546.207031 L 711.148438 546.207031 L 711.148438 535.6875 C 711.148438 533.910156 712.601562 532.460938 714.378906 532.460938 C 716.15625 532.460938 717.605469 533.910156 717.605469 535.6875 Z M 717.605469 535.6875 " fill-opacity="1" fill-rule="nonzero"/><path fill="#fe6081" d="M 684.730469 586.160156 L 684.730469 593.515625 C 684.730469 593.742188 684.554688 593.917969 684.328125 593.917969 L 681.699219 593.917969 C 681.476562 593.917969 681.300781 593.742188 681.300781 593.515625 L 681.300781 586.160156 C 681.300781 585.9375 681.476562 585.761719 681.699219 585.761719 L 684.328125 585.761719 C 684.554688 585.761719 684.730469 585.9375 684.730469 586.160156 Z M 684.730469 586.160156 " fill-opacity="1" fill-rule="nonzero"/><path fill="#218ae5" d="M 684.617188 588.378906 L 744.140625 588.378906 L 744.140625 591.296875 L 684.617188 591.296875 Z M 684.617188 588.378906 " fill-opacity="1" fill-rule="nonzero"/><path fill="#82cafa" d="M 745.742188 609.738281 L 742.457031 611.613281 L 742.457031 620.367188 L 713.835938 558.144531 L 721.304688 555.390625 Z M 745.742188 609.738281 " fill-opacity="1" fill-rule="nonzero"/><path fill="#82cafa" d="M 683.015625 609.738281 L 686.300781 611.613281 L 686.300781 620.367188 L 714.921875 558.144531 L 707.453125 555.390625 Z M 683.015625 609.738281 " fill-opacity="1" fill-rule="nonzero"/><path fill="#fe6081" d="M 727.671875 556.894531 C 727.671875 557.769531 727.589844 558.632812 727.417969 559.488281 C 727.246094 560.34375 726.996094 561.175781 726.660156 561.980469 C 726.328125 562.785156 725.917969 563.550781 725.433594 564.277344 C 724.949219 565.003906 724.398438 565.675781 723.78125 566.292969 C 723.164062 566.910156 722.492188 567.460938 721.765625 567.945312 C 721.039062 568.429688 720.273438 568.839844 719.464844 569.171875 C 718.660156 569.503906 717.828125 569.757812 716.972656 569.929688 C 716.117188 570.097656 715.253906 570.183594 714.378906 570.183594 C 713.507812 570.183594 712.640625 570.097656 711.785156 569.929688 C 710.929688 569.757812 710.097656 569.503906 709.292969 569.171875 C 708.484375 568.839844 707.71875 568.429688 706.992188 567.945312 C 706.265625 567.460938 705.597656 566.910156 704.980469 566.292969 C 704.363281 565.675781 703.808594 565.003906 703.324219 564.277344 C 702.839844 563.550781 702.429688 562.785156 702.097656 561.980469 C 701.761719 561.175781 701.511719 560.34375 701.339844 559.488281 C 701.171875 558.632812 701.085938 557.769531 701.085938 556.894531 C 701.085938 556.023438 701.171875 555.160156 701.339844 554.304688 C 701.511719 553.449219 701.761719 552.617188 702.097656 551.8125 C 702.429688 551.003906 702.839844 550.238281 703.324219 549.515625 C 703.808594 548.789062 704.363281 548.117188 704.980469 547.5 C 705.597656 546.882812 706.265625 546.332031 706.992188 545.847656 C 707.71875 545.363281 708.484375 544.953125 709.292969 544.621094 C 710.097656 544.285156 710.929688 544.035156 711.785156 543.863281 C 712.640625 543.695312 713.507812 543.609375 714.378906 543.609375 C 715.253906 543.609375 716.117188 543.695312 716.972656 543.863281 C 717.828125 544.035156 718.660156 544.285156 719.464844 544.621094 C 720.273438 544.953125 721.039062 545.363281 721.765625 545.847656 C 722.492188 546.332031 723.164062 546.882812 723.78125 547.5 C 724.398438 548.117188 724.949219 548.789062 725.433594 549.515625 C 725.917969 550.238281 726.328125 551.003906 726.660156 551.8125 C 726.996094 552.617188 727.246094 553.449219 727.417969 554.304688 C 727.589844 555.160156 727.671875 556.023438 727.671875 556.894531 Z M 727.671875 556.894531 " fill-opacity="1" fill-rule="nonzero"/><path fill="#ffffff" d="M 721 556.894531 C 721 557.332031 720.957031 557.761719 720.875 558.1875 C 720.789062 558.613281 720.664062 559.027344 720.496094 559.429688 C 720.332031 559.832031 720.125 560.210938 719.886719 560.574219 C 719.644531 560.933594 719.367188 561.269531 719.0625 561.574219 C 718.753906 561.882812 718.417969 562.15625 718.058594 562.398438 C 717.695312 562.640625 717.316406 562.84375 716.914062 563.011719 C 716.511719 563.175781 716.097656 563.300781 715.671875 563.386719 C 715.246094 563.472656 714.8125 563.515625 714.378906 563.515625 C 713.945312 563.515625 713.515625 563.472656 713.085938 563.386719 C 712.660156 563.300781 712.246094 563.175781 711.84375 563.011719 C 711.445312 562.84375 711.0625 562.640625 710.699219 562.398438 C 710.339844 562.15625 710.003906 561.882812 709.695312 561.574219 C 709.390625 561.269531 709.113281 560.933594 708.875 560.574219 C 708.632812 560.210938 708.429688 559.832031 708.261719 559.429688 C 708.09375 559.027344 707.96875 558.613281 707.882812 558.1875 C 707.800781 557.761719 707.757812 557.332031 707.757812 556.894531 C 707.757812 556.460938 707.800781 556.03125 707.882812 555.605469 C 707.96875 555.179688 708.09375 554.765625 708.261719 554.363281 C 708.429688 553.960938 708.632812 553.582031 708.875 553.21875 C 709.113281 552.855469 709.390625 552.523438 709.695312 552.214844 C 710.003906 551.910156 710.339844 551.632812 710.699219 551.394531 C 711.0625 551.152344 711.445312 550.949219 711.84375 550.78125 C 712.246094 550.613281 712.660156 550.488281 713.085938 550.40625 C 713.515625 550.320312 713.945312 550.277344 714.378906 550.277344 C 714.8125 550.277344 715.246094 550.320312 715.671875 550.40625 C 716.097656 550.488281 716.511719 550.613281 716.914062 550.78125 C 717.316406 550.949219 717.695312 551.152344 718.058594 551.394531 C 718.417969 551.632812 718.753906 551.910156 719.0625 552.214844 C 719.367188 552.523438 719.644531 552.859375 719.886719 553.21875 C 720.125 553.582031 720.332031 553.960938 720.496094 554.363281 C 720.664062 554.765625 720.789062 555.179688 720.875 555.605469 C 720.957031 556.03125 721 556.460938 721 556.894531 Z M 721 556.894531 " fill-opacity="1" fill-rule="nonzero"/><path fill="#fe6081" d="M 747.570312 586.160156 L 747.570312 593.515625 C 747.570312 593.742188 747.394531 593.917969 747.167969 593.917969 L 744.542969 593.917969 C 744.316406 593.917969 744.140625 593.742188 744.140625 593.515625 L 744.140625 586.160156 C 744.140625 585.9375 744.316406 585.761719 744.542969 585.761719 L 747.167969 585.761719 C 747.394531 585.761719 747.570312 585.9375 747.570312 586.160156 Z M 747.570312 586.160156 " fill-opacity="1" fill-rule="nonzero"/><path fill="#fe6081" d="M 719.632812 589.839844 C 719.632812 590.183594 719.597656 590.523438 719.53125 590.863281 C 719.464844 591.203125 719.363281 591.53125 719.234375 591.847656 C 719.101562 592.167969 718.9375 592.46875 718.746094 592.757812 C 718.554688 593.042969 718.339844 593.308594 718.09375 593.550781 C 717.851562 593.796875 717.585938 594.011719 717.296875 594.207031 C 717.011719 594.398438 716.707031 594.558594 716.390625 594.691406 C 716.070312 594.824219 715.742188 594.921875 715.402344 594.988281 C 715.066406 595.054688 714.722656 595.089844 714.378906 595.089844 C 714.035156 595.089844 713.691406 595.054688 713.355469 594.988281 C 713.015625 594.921875 712.6875 594.824219 712.367188 594.691406 C 712.050781 594.558594 711.746094 594.398438 711.460938 594.207031 C 711.171875 594.011719 710.90625 593.796875 710.664062 593.550781 C 710.421875 593.308594 710.203125 593.042969 710.011719 592.757812 C 709.820312 592.46875 709.65625 592.167969 709.523438 591.847656 C 709.394531 591.53125 709.292969 591.203125 709.226562 590.863281 C 709.160156 590.523438 709.125 590.183594 709.125 589.839844 C 709.125 589.492188 709.160156 589.152344 709.226562 588.8125 C 709.292969 588.476562 709.394531 588.148438 709.523438 587.828125 C 709.65625 587.511719 709.820312 587.207031 710.011719 586.921875 C 710.203125 586.632812 710.421875 586.371094 710.664062 586.125 C 710.90625 585.882812 711.171875 585.664062 711.460938 585.472656 C 711.746094 585.28125 712.050781 585.117188 712.367188 584.988281 C 712.6875 584.855469 713.015625 584.753906 713.355469 584.6875 C 713.691406 584.621094 714.035156 584.585938 714.378906 584.585938 C 714.722656 584.585938 715.066406 584.621094 715.402344 584.6875 C 715.742188 584.753906 716.070312 584.855469 716.390625 584.988281 C 716.707031 585.117188 717.011719 585.28125 717.296875 585.472656 C 717.585938 585.664062 717.851562 585.882812 718.09375 586.125 C 718.339844 586.371094 718.554688 586.632812 718.746094 586.921875 C 718.9375 587.207031 719.101562 587.511719 719.234375 587.828125 C 719.363281 588.148438 719.464844 588.476562 719.53125 588.8125 C 719.597656 589.152344 719.632812 589.492188 719.632812 589.839844 Z M 719.632812 589.839844 " fill-opacity="1" fill-rule="nonzero"/><path fill="#37c092" d="M 454.636719 681.386719 C 454.636719 681.386719 418.734375 674.148438 414.152344 650.535156 C 410.050781 629.363281 444.53125 603.195312 444.53125 603.195312 C 491.074219 654.566406 454.636719 681.386719 454.636719 681.386719 Z M 454.636719 681.386719 " fill-opacity="1" fill-rule="nonzero"/><path fill="#238a6f" d="M 446.023438 649.03125 C 449.507812 656.4375 451.617188 664.414062 453.367188 672.398438 C 455.070312 680.410156 456.039062 688.558594 456.773438 696.707031 L 457.148438 702.832031 L 457.332031 708.964844 C 457.488281 713.054688 457.421875 717.144531 457.324219 721.230469 C 457.21875 725.316406 456.902344 729.394531 456.695312 733.46875 C 456.289062 737.535156 455.890625 741.601562 455.402344 745.652344 C 455.464844 741.566406 455.6875 737.496094 455.777344 733.425781 C 455.800781 729.351562 455.953125 725.28125 455.886719 721.214844 C 455.789062 713.078125 455.644531 704.945312 454.910156 696.851562 C 454.335938 688.746094 453.347656 680.675781 451.960938 672.671875 C 451.25 668.671875 450.46875 664.679688 449.464844 660.742188 C 448.542969 656.777344 447.425781 652.863281 446.023438 649.03125 Z M 446.023438 649.03125 " fill-opacity="1" fill-rule="nonzero"/><path fill="#fcc283" d="M 483.898438 738.441406 L 474.699219 801.535156 L 420.863281 801.535156 L 411.664062 738.441406 Z M 483.898438 738.441406 " fill-opacity="1" fill-rule="nonzero"/><path fill="#fe8b70" d="M 481.980469 751.597656 L 483.898438 738.441406 L 411.664062 738.441406 L 413.585938 751.597656 Z M 481.980469 751.597656 " fill-opacity="1" fill-rule="nonzero"/><path fill="#37c092" d="M 452.246094 723.839844 C 452.246094 723.839844 441.011719 676.25 515.277344 654.890625 C 515.277344 654.890625 525.359375 700.683594 507.164062 718.535156 C 486.871094 738.441406 452.246094 723.839844 452.246094 723.839844 Z M 452.246094 723.839844 " fill-opacity="1" fill-rule="nonzero"/><path fill="#238a6f" d="M 483.898438 695.589844 C 481.703125 696.6875 479.542969 697.820312 477.492188 699.144531 C 475.402344 700.386719 473.390625 701.75 471.441406 703.191406 C 467.5625 706.089844 463.925781 709.296875 460.722656 712.886719 C 457.433594 716.40625 454.785156 720.464844 452.5625 724.726562 L 450.980469 727.984375 L 449.765625 731.402344 C 449.558594 731.972656 449.308594 732.535156 449.140625 733.117188 L 448.699219 734.882812 C 448.417969 736.066406 448.109375 737.25 447.78125 738.441406 C 448.238281 733.585938 449.109375 728.617188 451.257812 724.113281 C 453.242188 719.566406 455.964844 715.300781 459.332031 711.640625 C 462.675781 707.960938 466.464844 704.695312 470.625 702.015625 C 474.777344 699.339844 479.199219 697.054688 483.898438 695.589844 Z M 483.898438 695.589844 " fill-opacity="1" fill-rule="nonzero"/><path fill="#238a6f" d="M 430.0625 695.589844 C 433.355469 697.808594 436.117188 700.785156 438.421875 704.046875 C 440.742188 707.3125 442.5625 710.957031 443.746094 714.804688 C 444.871094 718.65625 445.660156 722.652344 445.535156 726.667969 C 445.625 728.667969 445.300781 730.65625 445.136719 732.632812 C 444.824219 734.597656 444.332031 736.53125 443.859375 738.441406 C 444.136719 734.488281 444.457031 730.59375 444.09375 726.71875 C 443.886719 722.847656 443.078125 719.042969 441.960938 715.367188 C 440.875 711.667969 439.183594 708.167969 437.222656 704.832031 C 436.242188 703.160156 435.125 701.5625 433.933594 700.019531 C 432.757812 698.457031 431.457031 696.992188 430.0625 695.589844 Z M 430.0625 695.589844 " fill-opacity="1" fill-rule="nonzero"/><path fill="#37c092" d="M 435.203125 700.585938 C 435.203125 700.585938 424.652344 660.835938 368.652344 666.246094 C 368.652344 666.246094 382.378906 716.472656 401.925781 722.21875 C 424.921875 728.976562 435.203125 700.585938 435.203125 700.585938 Z M 435.203125 700.585938 " fill-opacity="1" fill-rule="nonzero"/></svg>